<svg xmlns="http://www.w3.org/2000/svg" viewBox="0 0 167.09 156.78"><defs><style>.cls-1,.cls-2{fill:#9ebe43;}.cls-1{stroke:#fff;stroke-miterlimit:10;stroke-width:10px;}</style></defs><g id="Capa_2" data-name="Capa 2"><g id="Capa_1-2" data-name="Capa 1"><path class="cls-1" d="M141.1,40.18c-4.57,1.58-8.84,3-13.11,4.54-14.09,4.92-28.16,9.87-42.27,14.71a6.59,6.59,0,0,1-4,.11Q48.12,48,14.58,36.25c-.22-.08-.43-.18-.65-.25a3.48,3.48,0,0,1-2.8-3.54,3.58,3.58,0,0,1,2.79-3.56C20,26.83,26,24.72,32,22.62Q56.77,14,81.53,5.38a5.65,5.65,0,0,1,4,0Q119,17.15,152.43,28.87c.66.23,1.53.35,1.88.84.66.92,1.5,2.13,1.37,3.1a4.52,4.52,0,0,1-2.07,2.89,25.8,25.8,0,0,1-5.22,1.9,1.51,1.51,0,0,0-1.23,1.74c.05,4.83,0,9.66.07,14.49a3,3,0,0,0,1,1.79,14.83,14.83,0,0,0,2.14,1.49A3.59,3.59,0,0,1,152,60.36c-.06,2.38,0,4.77,0,7.15a3,3,0,0,1-3.12,3.23c-3.14.08-6.28.07-9.42,0a3,3,0,0,1-3.16-3.2c-.05-2.5,0-5,0-7.51A3.13,3.13,0,0,1,138.2,57c2.48-1.09,3.13-2.9,3-5.52C140.92,47.81,141.1,44.14,141.1,40.18Z"/><path class="cls-1" d="M96.71,129.87v12.26H22.34C11.79,142.13,5,135.33,5,124.77c0-4.42,0-8.84,0-13.26C5.07,102,12,94.94,21.5,94.89c10.42-.06,20.83,0,31.24,0a7.22,7.22,0,0,1,2.21.38,89,89,0,0,0,57.21,0,8.93,8.93,0,0,1,2.72-.42c14.31,0,28.62,0,42.93,0,1.51,0,3,0,3.83,1.52s.26,3-.59,4.39a36.67,36.67,0,0,0-2.52,5,1.93,1.93,0,0,1-2.17,1.42c-9.78-.05-19.55,0-29.32,0H31.22c-2.94,0-4.54,1.12-4.52,3.15s1.66,3.12,4.59,3.12H96.67v10.22H94.5q-31.5,0-63,0a8.19,8.19,0,0,0-2.58.29,3.07,3.07,0,0,0,.62,5.91,13.64,13.64,0,0,0,1.92.05H96.71Z"/><path class="cls-1" d="M38.56,51.21C43.89,53.06,49,54.82,54.07,56.6c8.39,2.92,16.78,5.82,25.14,8.81a12.46,12.46,0,0,0,8.68,0c12.8-4.54,25.62-9,38.43-13.53l1.8-.61c0,.67.09,1.22.09,1.76,0,7.85,0,15.7,0,23.55a4.79,4.79,0,0,1-2.12,4.28A65.85,65.85,0,0,1,97.45,92.4a82.36,82.36,0,0,1-39.27-2.73A56.62,56.62,0,0,1,40.3,80.49a4.3,4.3,0,0,1-1.66-2.83C38.51,68.94,38.56,60.22,38.56,51.21Z"/><path class="cls-1" d="M103.36,113.45h26.9c0,.61.08,1.17.08,1.72,0,11.22,0,22.44-.05,33.66a3.66,3.66,0,0,1-1.12,2.78c-.71.4-2.12,0-3-.43-2.76-1.48-5.43-3.13-8.08-4.8a2.16,2.16,0,0,0-2.67,0c-2.61,1.64-5.27,3.18-7.94,4.71-2.36,1.35-4.27.35-4.28-2.33,0-11.57,0-23.13,0-34.7A3.41,3.41,0,0,1,103.36,113.45Z"/><path class="cls-1" d="M136.69,142.12V130a4.57,4.57,0,0,1,.84-.16c6.39,0,12.79,0,19.18,0a2,2,0,0,1,1.48.78c1.23,2.17,2.33,4.4,3.46,6.62s-.09,4.76-2.63,4.79C151.64,142.17,144.26,142.12,136.69,142.12Z"/><path class="cls-1" d="M156.29,123.51H136.7v-10h19.59Z"/><path class="cls-2" d="M141.1,40.18c-4.57,1.58-8.84,3-13.11,4.54-14.09,4.92-28.16,9.87-42.27,14.71a6.59,6.59,0,0,1-4,.11Q48.12,48,14.58,36.25c-.22-.08-.43-.18-.65-.25a3.48,3.48,0,0,1-2.8-3.54,3.58,3.58,0,0,1,2.79-3.56C20,26.83,26,24.72,32,22.62Q56.77,14,81.53,5.38a5.65,5.65,0,0,1,4,0Q119,17.15,152.43,28.87c.66.23,1.53.35,1.88.84.66.92,1.5,2.13,1.37,3.1a4.52,4.52,0,0,1-2.07,2.89,25.8,25.8,0,0,1-5.22,1.9,1.51,1.51,0,0,0-1.23,1.74c.05,4.83,0,9.66.07,14.49a3,3,0,0,0,1,1.79,14.83,14.83,0,0,0,2.14,1.49A3.59,3.59,0,0,1,152,60.36c-.06,2.38,0,4.77,0,7.15a3,3,0,0,1-3.12,3.23c-3.14.08-6.28.07-9.42,0a3,3,0,0,1-3.16-3.2c-.05-2.5,0-5,0-7.51A3.13,3.13,0,0,1,138.2,57c2.48-1.09,3.13-2.9,3-5.52C140.92,47.81,141.1,44.14,141.1,40.18Z"/><path class="cls-2" d="M96.71,129.87v12.26H22.34C11.79,142.13,5,135.33,5,124.77c0-4.42,0-8.84,0-13.26C5.07,102,12,94.94,21.5,94.89c10.42-.06,20.83,0,31.24,0a7.22,7.22,0,0,1,2.21.38,89,89,0,0,0,57.21,0,8.93,8.93,0,0,1,2.72-.42c14.31,0,28.62,0,42.93,0,1.51,0,3,0,3.83,1.52s.26,3-.59,4.39a36.67,36.67,0,0,0-2.52,5,1.93,1.93,0,0,1-2.17,1.42c-9.78-.05-19.55,0-29.32,0H31.22c-2.94,0-4.54,1.12-4.52,3.15s1.66,3.12,4.59,3.12H96.67v10.22H94.5q-31.5,0-63,0a8.19,8.19,0,0,0-2.58.29,3.07,3.07,0,0,0,.62,5.91,13.64,13.64,0,0,0,1.92.05H96.71Z"/><path class="cls-2" d="M38.56,51.21C43.89,53.06,49,54.82,54.07,56.6c8.39,2.92,16.78,5.82,25.14,8.81a12.46,12.46,0,0,0,8.68,0c12.8-4.54,25.62-9,38.43-13.53l1.8-.61c0,.67.09,1.22.09,1.76,0,7.85,0,15.7,0,23.55a4.79,4.79,0,0,1-2.12,4.28A65.85,65.85,0,0,1,97.45,92.4a82.36,82.36,0,0,1-39.27-2.73A56.62,56.62,0,0,1,40.3,80.49a4.3,4.3,0,0,1-1.66-2.83C38.51,68.94,38.56,60.22,38.56,51.21Z"/><path class="cls-2" d="M103.36,113.45h26.9c0,.61.08,1.17.08,1.72,0,11.22,0,22.44-.05,33.66a3.66,3.66,0,0,1-1.12,2.78c-.71.4-2.12,0-3-.43-2.76-1.48-5.43-3.13-8.08-4.8a2.16,2.16,0,0,0-2.67,0c-2.61,1.64-5.27,3.18-7.94,4.71-2.36,1.35-4.27.35-4.28-2.33,0-11.57,0-23.13,0-34.7A3.41,3.41,0,0,1,103.36,113.45Z"/><path class="cls-2" d="M136.69,142.12V130a4.57,4.57,0,0,1,.84-.16c6.39,0,12.79,0,19.18,0a2,2,0,0,1,1.48.78c1.23,2.17,2.33,4.4,3.46,6.62s-.09,4.76-2.63,4.79C151.64,142.17,144.26,142.12,136.69,142.12Z"/><path class="cls-2" d="M156.29,123.51H136.7v-10h19.59Z"/></g></g></svg>