<svg xmlns="http://www.w3.org/2000/svg" width="24" height="29" viewBox="0 0 24 29" fill="none">
  <path d="M15.9126 0H8.23163V7.12617H15.9126V0Z" fill="#21A366"/>
  <path d="M23.5934 0H15.9124V7.12617H23.5934V0Z" fill="#33C481"/>
  <path d="M15.9126 7.12622H8.23163V14.2524H15.9126V7.12622Z" fill="#107C41"/>
  <path d="M23.5934 7.12622H15.9124V14.2524H23.5934V7.12622Z" fill="#21A366"/>
  <path d="M15.9126 14.252H8.23163V21.3782H15.9126V14.252Z" fill="#185C37"/>
  <path d="M23.5934 14.252H15.9124V21.3782H23.5934V14.252Z" fill="#107C41"/>
  <path d="M15.9126 21.379H8.23163V28.5052H15.9126V21.379Z" fill="#185C37"/>
  <path d="M23.5934 21.379H15.9124V28.5052H23.5934V21.379Z" fill="#185C37"/>
  <path d="M15.4196 5.03522H0V23.4981H15.4196V5.03522Z" fill="#0F773D"/>
  <path d="M4.11217 6.71368L5.8784 9.84857C6.33384 10.6618 6.72263 11.4226 7.13364 12.2358H7.2114C7.62241 11.357 8.03342 10.6093 8.43332 9.82233L10.1773 6.71368H12.6101L8.38889 13.7836L12.7323 21.3257H10.1773L8.36667 18.0334C7.8779 17.1939 7.46689 16.3676 7.03367 15.5019H6.96702C6.55601 16.3807 6.12278 17.1677 5.66734 18.0334L3.8789 21.3257H1.40173L5.80064 13.8623L1.60168 6.71368H4.11217Z" fill="white" stroke="white" stroke-miterlimit="10"/>
</svg>